G04 #@! TF.FileFunction,Other,ECO1*
%FSLAX46Y46*%
G04 Gerber Fmt 4.6, Leading zero omitted, Abs format (unit mm)*
G04 Created by KiCad (PCBNEW 4.0.5) date 02/05/17 18:09:27*
%MOMM*%
%LPD*%
G01*
G04 APERTURE LIST*
%ADD10C,0.100000*%
%ADD11C,0.200000*%
%ADD12C,0.300000*%
G04 APERTURE END LIST*
D10*
D11*
X113100000Y-67900000D02*
X113100000Y-68700000D01*
X113100000Y-72100000D02*
X113100000Y-71300000D01*
X102100000Y-67900000D02*
X102100000Y-68700000D01*
X102100000Y-72100000D02*
X102100000Y-71200000D01*
X103900000Y-72100000D02*
X102100000Y-72100000D01*
X103900000Y-69400000D02*
X103900000Y-72100000D01*
X103900000Y-67900000D02*
X103900000Y-68400000D01*
X102100000Y-67900000D02*
X103900000Y-67900000D01*
X113100000Y-62000000D02*
X113100000Y-61500000D01*
X113100000Y-58100000D02*
X113100000Y-60500000D01*
X110900000Y-62000000D02*
X110900000Y-61500000D01*
X110900000Y-58100000D02*
X110900000Y-60500000D01*
X114900000Y-72100000D02*
X113100000Y-72100000D01*
X114900000Y-69300000D02*
X114900000Y-72100000D01*
X114900000Y-67900000D02*
X114900000Y-68500000D01*
X113100000Y-67900000D02*
X114900000Y-67900000D01*
X116900000Y-57800000D02*
X115100000Y-57800000D01*
X116900000Y-62000000D02*
X116900000Y-57800000D01*
X115100000Y-62000000D02*
X116900000Y-62000000D01*
X115100000Y-57800000D02*
X115100000Y-62000000D01*
X113100000Y-58100000D02*
X113200000Y-58100000D01*
X114900000Y-62000000D02*
X113100000Y-62000000D01*
X114900000Y-58100000D02*
X114900000Y-62000000D01*
X113200000Y-58100000D02*
X114900000Y-58100000D01*
X109100000Y-58100000D02*
X109200000Y-58100000D01*
X109100000Y-62000000D02*
X109100000Y-58100000D01*
X110900000Y-62000000D02*
X109100000Y-62000000D01*
X109200000Y-58100000D02*
X110900000Y-58100000D01*
X107100000Y-57800000D02*
X107100000Y-57900000D01*
X108900000Y-57800000D02*
X107100000Y-57800000D01*
X108900000Y-62000000D02*
X108900000Y-57800000D01*
X107100000Y-62000000D02*
X108900000Y-62000000D01*
X107100000Y-57900000D02*
X107100000Y-62000000D01*
X107000000Y-70700000D02*
X107500000Y-70700000D01*
X105700000Y-69300000D02*
X105700000Y-70200000D01*
X106500000Y-69300000D02*
X105700000Y-69300000D01*
X108800000Y-69300000D02*
X108800000Y-70200000D01*
X108000000Y-69300000D02*
X108800000Y-69300000D01*
X117800000Y-70700000D02*
X118200000Y-70700000D01*
X119500000Y-69300000D02*
X119500000Y-70200000D01*
X118800000Y-69300000D02*
X119500000Y-69300000D01*
X116500000Y-69300000D02*
X116500000Y-70200000D01*
X117200000Y-69300000D02*
X116500000Y-69300000D01*
X120200000Y-65700000D02*
X119800000Y-65700000D01*
X121500000Y-64300000D02*
X121500000Y-65200000D01*
X120800000Y-64300000D02*
X121500000Y-64300000D01*
X118500000Y-64300000D02*
X118500000Y-65200000D01*
X119200000Y-64300000D02*
X118500000Y-64300000D01*
X115800000Y-64300000D02*
X116500000Y-64300000D01*
X116500000Y-65200000D02*
X116500000Y-64300000D01*
X114800000Y-65700000D02*
X115200000Y-65700000D01*
X113500000Y-64300000D02*
X113500000Y-65200000D01*
X114200000Y-64300000D02*
X113500000Y-64300000D01*
X110500000Y-64300000D02*
X110500000Y-65200000D01*
X109800000Y-64300000D02*
X110500000Y-64300000D01*
X108800000Y-65700000D02*
X109200000Y-65700000D01*
X107500000Y-64300000D02*
X107500000Y-65200000D01*
X108200000Y-64300000D02*
X107500000Y-64300000D01*
X103800000Y-65700000D02*
X104200000Y-65700000D01*
X105500000Y-64300000D02*
X105500000Y-65200000D01*
X104800000Y-64300000D02*
X105500000Y-64300000D01*
X102500000Y-64300000D02*
X102500000Y-65200000D01*
X103200000Y-64300000D02*
X102500000Y-64300000D01*
D12*
X113571429Y-73321429D02*
X113642858Y-73250000D01*
X113785715Y-73178571D01*
X114142858Y-73178571D01*
X114285715Y-73250000D01*
X114357144Y-73321429D01*
X114428572Y-73464286D01*
X114428572Y-73607143D01*
X114357144Y-73821429D01*
X113500001Y-74678571D01*
X114428572Y-74678571D01*
X110428572Y-74678571D02*
X109571429Y-74678571D01*
X110000001Y-74678571D02*
X110000001Y-73178571D01*
X109857144Y-73392857D01*
X109714286Y-73535714D01*
X109571429Y-73607143D01*
X105428572Y-74007143D02*
X106571429Y-74007143D01*
X106000000Y-74578571D02*
X106000000Y-73435714D01*
X102392857Y-73250000D02*
X102250000Y-73178571D01*
X102035714Y-73178571D01*
X101821429Y-73250000D01*
X101678571Y-73392857D01*
X101607143Y-73535714D01*
X101535714Y-73821429D01*
X101535714Y-74035714D01*
X101607143Y-74321429D01*
X101678571Y-74464286D01*
X101821429Y-74607143D01*
X102035714Y-74678571D01*
X102178571Y-74678571D01*
X102392857Y-74607143D01*
X102464286Y-74535714D01*
X102464286Y-74035714D01*
X102178571Y-74035714D01*
D11*
X112402381Y-60464286D02*
X112340476Y-60526190D01*
X112154762Y-60588095D01*
X112030952Y-60588095D01*
X111845238Y-60526190D01*
X111721429Y-60402381D01*
X111659524Y-60278571D01*
X111597619Y-60030952D01*
X111597619Y-59845238D01*
X111659524Y-59597619D01*
X111721429Y-59473810D01*
X111845238Y-59350000D01*
X112030952Y-59288095D01*
X112154762Y-59288095D01*
X112340476Y-59350000D01*
X112402381Y-59411905D01*
X112988095Y-70216666D02*
X112369048Y-70649999D01*
X112988095Y-70959523D02*
X111688095Y-70959523D01*
X111688095Y-70464285D01*
X111750000Y-70340476D01*
X111811905Y-70278571D01*
X111935714Y-70216666D01*
X112121429Y-70216666D01*
X112245238Y-70278571D01*
X112307143Y-70340476D01*
X112369048Y-70464285D01*
X112369048Y-70959523D01*
X111811905Y-69721428D02*
X111750000Y-69659523D01*
X111688095Y-69535714D01*
X111688095Y-69226190D01*
X111750000Y-69102380D01*
X111811905Y-69040476D01*
X111935714Y-68978571D01*
X112059524Y-68978571D01*
X112245238Y-69040476D01*
X112988095Y-69783333D01*
X112988095Y-68978571D01*
X101988095Y-70216666D02*
X101369048Y-70649999D01*
X101988095Y-70959523D02*
X100688095Y-70959523D01*
X100688095Y-70464285D01*
X100750000Y-70340476D01*
X100811905Y-70278571D01*
X100935714Y-70216666D01*
X101121429Y-70216666D01*
X101245238Y-70278571D01*
X101307143Y-70340476D01*
X101369048Y-70464285D01*
X101369048Y-70959523D01*
X101988095Y-68978571D02*
X101988095Y-69721428D01*
X101988095Y-69349999D02*
X100688095Y-69349999D01*
X100873810Y-69473809D01*
X100997619Y-69597618D01*
X101059524Y-69721428D01*
X110176190Y-69711905D02*
X110052381Y-69650000D01*
X109928571Y-69526190D01*
X109742857Y-69340476D01*
X109619048Y-69278571D01*
X109495238Y-69278571D01*
X109557143Y-69588095D02*
X109433333Y-69526190D01*
X109309524Y-69402381D01*
X109247619Y-69154762D01*
X109247619Y-68721429D01*
X109309524Y-68473810D01*
X109433333Y-68350000D01*
X109557143Y-68288095D01*
X109804762Y-68288095D01*
X109928571Y-68350000D01*
X110052381Y-68473810D01*
X110114286Y-68721429D01*
X110114286Y-69154762D01*
X110052381Y-69402381D01*
X109928571Y-69526190D01*
X109804762Y-69588095D01*
X109557143Y-69588095D01*
X110609524Y-68411905D02*
X110671429Y-68350000D01*
X110795238Y-68288095D01*
X111104762Y-68288095D01*
X111228572Y-68350000D01*
X111290476Y-68411905D01*
X111352381Y-68535714D01*
X111352381Y-68659524D01*
X111290476Y-68845238D01*
X110547619Y-69588095D01*
X111352381Y-69588095D01*
X120876190Y-69711905D02*
X120752381Y-69650000D01*
X120628571Y-69526190D01*
X120442857Y-69340476D01*
X120319048Y-69278571D01*
X120195238Y-69278571D01*
X120257143Y-69588095D02*
X120133333Y-69526190D01*
X120009524Y-69402381D01*
X119947619Y-69154762D01*
X119947619Y-68721429D01*
X120009524Y-68473810D01*
X120133333Y-68350000D01*
X120257143Y-68288095D01*
X120504762Y-68288095D01*
X120628571Y-68350000D01*
X120752381Y-68473810D01*
X120814286Y-68721429D01*
X120814286Y-69154762D01*
X120752381Y-69402381D01*
X120628571Y-69526190D01*
X120504762Y-69588095D01*
X120257143Y-69588095D01*
X121990476Y-68288095D02*
X121371429Y-68288095D01*
X121309524Y-68907143D01*
X121371429Y-68845238D01*
X121495238Y-68783333D01*
X121804762Y-68783333D01*
X121928572Y-68845238D01*
X121990476Y-68907143D01*
X122052381Y-69030952D01*
X122052381Y-69340476D01*
X121990476Y-69464286D01*
X121928572Y-69526190D01*
X121804762Y-69588095D01*
X121495238Y-69588095D01*
X121371429Y-69526190D01*
X121309524Y-69464286D01*
X117576190Y-63711905D02*
X117452381Y-63650000D01*
X117328571Y-63526190D01*
X117142857Y-63340476D01*
X117019048Y-63278571D01*
X116895238Y-63278571D01*
X116957143Y-63588095D02*
X116833333Y-63526190D01*
X116709524Y-63402381D01*
X116647619Y-63154762D01*
X116647619Y-62721429D01*
X116709524Y-62473810D01*
X116833333Y-62350000D01*
X116957143Y-62288095D01*
X117204762Y-62288095D01*
X117328571Y-62350000D01*
X117452381Y-62473810D01*
X117514286Y-62721429D01*
X117514286Y-63154762D01*
X117452381Y-63402381D01*
X117328571Y-63526190D01*
X117204762Y-63588095D01*
X116957143Y-63588095D01*
X118628572Y-62288095D02*
X118380953Y-62288095D01*
X118257143Y-62350000D01*
X118195238Y-62411905D01*
X118071429Y-62597619D01*
X118009524Y-62845238D01*
X118009524Y-63340476D01*
X118071429Y-63464286D01*
X118133334Y-63526190D01*
X118257143Y-63588095D01*
X118504762Y-63588095D01*
X118628572Y-63526190D01*
X118690476Y-63464286D01*
X118752381Y-63340476D01*
X118752381Y-63030952D01*
X118690476Y-62907143D01*
X118628572Y-62845238D01*
X118504762Y-62783333D01*
X118257143Y-62783333D01*
X118133334Y-62845238D01*
X118071429Y-62907143D01*
X118009524Y-63030952D01*
X112576190Y-63711905D02*
X112452381Y-63650000D01*
X112328571Y-63526190D01*
X112142857Y-63340476D01*
X112019048Y-63278571D01*
X111895238Y-63278571D01*
X111957143Y-63588095D02*
X111833333Y-63526190D01*
X111709524Y-63402381D01*
X111647619Y-63154762D01*
X111647619Y-62721429D01*
X111709524Y-62473810D01*
X111833333Y-62350000D01*
X111957143Y-62288095D01*
X112204762Y-62288095D01*
X112328571Y-62350000D01*
X112452381Y-62473810D01*
X112514286Y-62721429D01*
X112514286Y-63154762D01*
X112452381Y-63402381D01*
X112328571Y-63526190D01*
X112204762Y-63588095D01*
X111957143Y-63588095D01*
X113628572Y-62721429D02*
X113628572Y-63588095D01*
X113319048Y-62226190D02*
X113009524Y-63154762D01*
X113814286Y-63154762D01*
X106576190Y-63711905D02*
X106452381Y-63650000D01*
X106328571Y-63526190D01*
X106142857Y-63340476D01*
X106019048Y-63278571D01*
X105895238Y-63278571D01*
X105957143Y-63588095D02*
X105833333Y-63526190D01*
X105709524Y-63402381D01*
X105647619Y-63154762D01*
X105647619Y-62721429D01*
X105709524Y-62473810D01*
X105833333Y-62350000D01*
X105957143Y-62288095D01*
X106204762Y-62288095D01*
X106328571Y-62350000D01*
X106452381Y-62473810D01*
X106514286Y-62721429D01*
X106514286Y-63154762D01*
X106452381Y-63402381D01*
X106328571Y-63526190D01*
X106204762Y-63588095D01*
X105957143Y-63588095D01*
X106947619Y-62288095D02*
X107752381Y-62288095D01*
X107319048Y-62783333D01*
X107504762Y-62783333D01*
X107628572Y-62845238D01*
X107690476Y-62907143D01*
X107752381Y-63030952D01*
X107752381Y-63340476D01*
X107690476Y-63464286D01*
X107628572Y-63526190D01*
X107504762Y-63588095D01*
X107133334Y-63588095D01*
X107009524Y-63526190D01*
X106947619Y-63464286D01*
X101676190Y-63711905D02*
X101552381Y-63650000D01*
X101428571Y-63526190D01*
X101242857Y-63340476D01*
X101119048Y-63278571D01*
X100995238Y-63278571D01*
X101057143Y-63588095D02*
X100933333Y-63526190D01*
X100809524Y-63402381D01*
X100747619Y-63154762D01*
X100747619Y-62721429D01*
X100809524Y-62473810D01*
X100933333Y-62350000D01*
X101057143Y-62288095D01*
X101304762Y-62288095D01*
X101428571Y-62350000D01*
X101552381Y-62473810D01*
X101614286Y-62721429D01*
X101614286Y-63154762D01*
X101552381Y-63402381D01*
X101428571Y-63526190D01*
X101304762Y-63588095D01*
X101057143Y-63588095D01*
X102852381Y-63588095D02*
X102109524Y-63588095D01*
X102480953Y-63588095D02*
X102480953Y-62288095D01*
X102357143Y-62473810D01*
X102233334Y-62597619D01*
X102109524Y-62659524D01*
D12*
X122371429Y-59321429D02*
X122442858Y-59250000D01*
X122585715Y-59178571D01*
X122942858Y-59178571D01*
X123085715Y-59250000D01*
X123157144Y-59321429D01*
X123228572Y-59464286D01*
X123228572Y-59607143D01*
X123157144Y-59821429D01*
X122300001Y-60678571D01*
X123228572Y-60678571D01*
X101628572Y-60678571D02*
X100771429Y-60678571D01*
X101200001Y-60678571D02*
X101200001Y-59178571D01*
X101057144Y-59392857D01*
X100914286Y-59535714D01*
X100771429Y-59607143D01*
M02*
