G04 #@! TF.FileFunction,Copper,L1,Top,Signal*
%FSLAX46Y46*%
G04 Gerber Fmt 4.6, Leading zero omitted, Abs format (unit mm)*
G04 Created by KiCad (PCBNEW 4.0.5) date 02/05/17 18:09:27*
%MOMM*%
%LPD*%
G01*
G04 APERTURE LIST*
%ADD10C,0.100000*%
%ADD11R,0.900000X1.200000*%
%ADD12R,0.800000X0.900000*%
%ADD13C,5.000000*%
%ADD14R,3.000000X3.000000*%
%ADD15R,0.750000X1.200000*%
%ADD16C,0.600000*%
%ADD17C,0.750000*%
%ADD18C,1.000000*%
G04 APERTURE END LIST*
D10*
D11*
X103000000Y-71100000D03*
X103000000Y-68900000D03*
D12*
X119050000Y-66000000D03*
X120950000Y-66000000D03*
X120000000Y-64000000D03*
X117050000Y-71000000D03*
X118950000Y-71000000D03*
X118000000Y-69000000D03*
X103050000Y-66000000D03*
X104950000Y-66000000D03*
X104000000Y-64000000D03*
X106300000Y-71000000D03*
X108200000Y-71000000D03*
X107250000Y-69000000D03*
X108050000Y-66000000D03*
X109950000Y-66000000D03*
X109000000Y-64000000D03*
X114050000Y-66000000D03*
X115950000Y-66000000D03*
X115000000Y-64000000D03*
D11*
X114000000Y-71100000D03*
X114000000Y-68900000D03*
D13*
X121000000Y-77000000D03*
D14*
X103000000Y-77000000D03*
X104000000Y-60000000D03*
X111000000Y-77000000D03*
X120000000Y-60000000D03*
X115000000Y-77000000D03*
X107000000Y-77000000D03*
D11*
X108000000Y-61000000D03*
X108000000Y-58800000D03*
X116000000Y-61000000D03*
X116000000Y-58800000D03*
D15*
X110000000Y-59100000D03*
X110000000Y-61000000D03*
X114000000Y-59100000D03*
X114000000Y-61000000D03*
D16*
X106300000Y-68900000D03*
X103900000Y-68900000D03*
X111000000Y-74000000D03*
X107700000Y-73300000D03*
X121000000Y-65000000D03*
X110000000Y-68000000D03*
X111100000Y-61000000D03*
X112900000Y-61000000D03*
X109400000Y-70900000D03*
X119000000Y-72200000D03*
X121000000Y-67200000D03*
X111200000Y-66000000D03*
X104000000Y-73800000D03*
X104000000Y-74800000D03*
X103000000Y-73800000D03*
X103000000Y-74800000D03*
X117000000Y-68900000D03*
X114900000Y-68900000D03*
D17*
X106300000Y-68900000D02*
X107150000Y-68900000D01*
X107150000Y-68900000D02*
X107250000Y-69000000D01*
X103000000Y-68900000D02*
X103900000Y-68900000D01*
X103050000Y-66000000D02*
X103050000Y-68850000D01*
X103050000Y-68850000D02*
X103000000Y-68900000D01*
X103100000Y-69000000D02*
X103000000Y-68900000D01*
X108050000Y-66000000D02*
X108050000Y-68200000D01*
X108050000Y-68200000D02*
X107250000Y-69000000D01*
D18*
X107000000Y-77000000D02*
X107000000Y-74500000D01*
X103800000Y-71300000D02*
X103800000Y-71100000D01*
X107000000Y-74500000D02*
X103800000Y-71300000D01*
X104950000Y-66000000D02*
X104950000Y-69950000D01*
X104950000Y-69950000D02*
X103800000Y-71100000D01*
X103800000Y-71100000D02*
X103000000Y-71100000D01*
X115950000Y-66000000D02*
X115950000Y-69750000D01*
X115950000Y-69750000D02*
X114600000Y-71100000D01*
X114600000Y-71100000D02*
X114000000Y-71100000D01*
X107000000Y-75600000D02*
X111500000Y-71100000D01*
X111500000Y-71100000D02*
X114000000Y-71100000D01*
X107000000Y-77000000D02*
X107000000Y-75600000D01*
X107000000Y-64000000D02*
X108000000Y-64000000D01*
X108000000Y-61000000D02*
X108000000Y-64000000D01*
X108000000Y-64000000D02*
X109000000Y-64000000D01*
X104000000Y-64000000D02*
X107000000Y-64000000D01*
D17*
X106300000Y-71000000D02*
X106300000Y-71900000D01*
X106300000Y-71900000D02*
X107700000Y-73300000D01*
X111000000Y-74000000D02*
X111000000Y-77000000D01*
D18*
X120950000Y-66000000D02*
X120950000Y-65050000D01*
X120950000Y-65050000D02*
X121000000Y-65000000D01*
X109950000Y-66000000D02*
X109950000Y-67950000D01*
X109950000Y-67950000D02*
X110000000Y-68000000D01*
X110000000Y-61000000D02*
X111100000Y-61000000D01*
X114000000Y-61000000D02*
X112900000Y-61000000D01*
X108200000Y-71000000D02*
X109300000Y-71000000D01*
X109300000Y-71000000D02*
X109400000Y-70900000D01*
X118950000Y-71000000D02*
X118950000Y-72150000D01*
X118950000Y-72150000D02*
X119000000Y-72200000D01*
X120950000Y-66000000D02*
X120950000Y-67150000D01*
X120950000Y-67150000D02*
X121000000Y-67200000D01*
X109950000Y-66000000D02*
X111200000Y-66000000D01*
X103000000Y-73800000D02*
X104000000Y-73800000D01*
X103000000Y-74800000D02*
X104000000Y-74800000D01*
X103000000Y-74800000D02*
X103000000Y-73800000D01*
X103000000Y-77000000D02*
X103000000Y-74800000D01*
D17*
X117000000Y-68900000D02*
X117900000Y-68900000D01*
X117900000Y-68900000D02*
X118000000Y-69000000D01*
X114000000Y-68900000D02*
X114900000Y-68900000D01*
X114050000Y-66000000D02*
X114050000Y-68850000D01*
X114050000Y-68850000D02*
X114000000Y-68900000D01*
X119050000Y-66000000D02*
X119050000Y-67950000D01*
X119050000Y-67950000D02*
X118000000Y-69000000D01*
D18*
X117900000Y-64000000D02*
X116000000Y-64000000D01*
X116000000Y-64000000D02*
X115000000Y-64000000D01*
X116000000Y-61000000D02*
X116000000Y-64000000D01*
X120000000Y-64000000D02*
X117900000Y-64000000D01*
D17*
X117050000Y-71000000D02*
X117050000Y-72200000D01*
X117050000Y-72200000D02*
X115000000Y-74250000D01*
X115000000Y-74250000D02*
X115000000Y-77000000D01*
D18*
X108000000Y-58800000D02*
X109700000Y-58800000D01*
X109700000Y-58800000D02*
X110000000Y-59100000D01*
X108000000Y-58800000D02*
X105200000Y-58800000D01*
X105200000Y-58800000D02*
X104000000Y-60000000D01*
X116000000Y-58800000D02*
X114300000Y-58800000D01*
X114300000Y-58800000D02*
X114000000Y-59100000D01*
X116000000Y-58800000D02*
X118800000Y-58800000D01*
X118800000Y-58800000D02*
X120000000Y-60000000D01*
M02*
