M48
INCH,TZ
T1C0.016
T2C0.059
T3C0.098
%
G90
G05
T1
X40551Y-29055
X40551Y-29449
X40906Y-27126
X40945Y-29055
X40945Y-29449
X41850Y-27126
X42402Y-28858
X43071Y-27913
X43307Y-26772
X43701Y-29134
X43740Y-24016
X43780Y-25984
X44449Y-24016
X45236Y-27126
X46063Y-27126
X46850Y-28425
X47638Y-25591
X47638Y-26457
T2
X40551Y-30315
X40945Y-23622
X42126Y-30315
X43701Y-30315
X45276Y-30315
X47244Y-23622
T3
X47638Y-30315
T0
M30
