G04 #@! TF.FileFunction,Other,ECO2*
%FSLAX46Y46*%
G04 Gerber Fmt 4.6, Leading zero omitted, Abs format (unit mm)*
G04 Created by KiCad (PCBNEW 4.0.5) date 02/05/17 18:09:27*
%MOMM*%
%LPD*%
G01*
G04 APERTURE LIST*
%ADD10C,0.100000*%
%ADD11C,0.200000*%
%ADD12C,0.010000*%
G04 APERTURE END LIST*
D10*
D11*
X114071428Y-72952381D02*
X114404762Y-72476190D01*
X114642857Y-72952381D02*
X114642857Y-71952381D01*
X114261904Y-71952381D01*
X114166666Y-72000000D01*
X114119047Y-72047619D01*
X114071428Y-72142857D01*
X114071428Y-72285714D01*
X114119047Y-72380952D01*
X114166666Y-72428571D01*
X114261904Y-72476190D01*
X114642857Y-72476190D01*
X113261904Y-72904762D02*
X113357142Y-72952381D01*
X113547619Y-72952381D01*
X113642857Y-72904762D01*
X113690476Y-72809524D01*
X113690476Y-72428571D01*
X113642857Y-72333333D01*
X113547619Y-72285714D01*
X113357142Y-72285714D01*
X113261904Y-72333333D01*
X113214285Y-72428571D01*
X113214285Y-72523810D01*
X113690476Y-72619048D01*
X112880952Y-72285714D02*
X112642857Y-72952381D01*
X112404761Y-72285714D01*
X110738094Y-72952381D02*
X111309523Y-72952381D01*
X111023809Y-72952381D02*
X111023809Y-71952381D01*
X111119047Y-72095238D01*
X111214285Y-72190476D01*
X111309523Y-72238095D01*
X110309523Y-72857143D02*
X110261904Y-72904762D01*
X110309523Y-72952381D01*
X110357142Y-72904762D01*
X110309523Y-72857143D01*
X110309523Y-72952381D01*
X109642857Y-71952381D02*
X109547618Y-71952381D01*
X109452380Y-72000000D01*
X109404761Y-72047619D01*
X109357142Y-72142857D01*
X109309523Y-72333333D01*
X109309523Y-72571429D01*
X109357142Y-72761905D01*
X109404761Y-72857143D01*
X109452380Y-72904762D01*
X109547618Y-72952381D01*
X109642857Y-72952381D01*
X109738095Y-72904762D01*
X109785714Y-72857143D01*
X109833333Y-72761905D01*
X109880952Y-72571429D01*
X109880952Y-72333333D01*
X109833333Y-72142857D01*
X109785714Y-72047619D01*
X109738095Y-72000000D01*
X109642857Y-71952381D01*
X115023809Y-59357143D02*
X115071428Y-59404762D01*
X115214285Y-59452381D01*
X115309523Y-59452381D01*
X115452381Y-59404762D01*
X115547619Y-59309524D01*
X115595238Y-59214286D01*
X115642857Y-59023810D01*
X115642857Y-58880952D01*
X115595238Y-58690476D01*
X115547619Y-58595238D01*
X115452381Y-58500000D01*
X115309523Y-58452381D01*
X115214285Y-58452381D01*
X115071428Y-58500000D01*
X115023809Y-58547619D01*
X114023809Y-59357143D02*
X114071428Y-59404762D01*
X114214285Y-59452381D01*
X114309523Y-59452381D01*
X114452381Y-59404762D01*
X114547619Y-59309524D01*
X114595238Y-59214286D01*
X114642857Y-59023810D01*
X114642857Y-58880952D01*
X114595238Y-58690476D01*
X114547619Y-58595238D01*
X114452381Y-58500000D01*
X114309523Y-58452381D01*
X114214285Y-58452381D01*
X114071428Y-58500000D01*
X114023809Y-58547619D01*
X112499999Y-58928571D02*
X112357142Y-58976190D01*
X112309523Y-59023810D01*
X112261904Y-59119048D01*
X112261904Y-59261905D01*
X112309523Y-59357143D01*
X112357142Y-59404762D01*
X112452380Y-59452381D01*
X112833333Y-59452381D01*
X112833333Y-58452381D01*
X112499999Y-58452381D01*
X112404761Y-58500000D01*
X112357142Y-58547619D01*
X112309523Y-58642857D01*
X112309523Y-58738095D01*
X112357142Y-58833333D01*
X112404761Y-58880952D01*
X112499999Y-58928571D01*
X112833333Y-58928571D01*
X111642857Y-58976190D02*
X111642857Y-59452381D01*
X111976190Y-58452381D02*
X111642857Y-58976190D01*
X111309523Y-58452381D01*
X110976190Y-59071429D02*
X110214285Y-59071429D01*
X109785714Y-59404762D02*
X109642857Y-59452381D01*
X109404761Y-59452381D01*
X109309523Y-59404762D01*
X109261904Y-59357143D01*
X109214285Y-59261905D01*
X109214285Y-59166667D01*
X109261904Y-59071429D01*
X109309523Y-59023810D01*
X109404761Y-58976190D01*
X109595238Y-58928571D01*
X109690476Y-58880952D01*
X109738095Y-58833333D01*
X109785714Y-58738095D01*
X109785714Y-58642857D01*
X109738095Y-58547619D01*
X109690476Y-58500000D01*
X109595238Y-58452381D01*
X109357142Y-58452381D01*
X109214285Y-58500000D01*
X108833333Y-59166667D02*
X108357142Y-59166667D01*
X108928571Y-59452381D02*
X108595238Y-58452381D01*
X108261904Y-59452381D01*
D12*
G36*
X105805532Y-62637246D02*
X107828050Y-62638387D01*
X107880967Y-62647986D01*
X107947579Y-62661646D01*
X108008259Y-62677621D01*
X108065404Y-62696696D01*
X108121409Y-62719659D01*
X108169822Y-62742778D01*
X108237378Y-62779907D01*
X108299165Y-62820359D01*
X108357217Y-62865637D01*
X108413571Y-62917245D01*
X108434577Y-62938430D01*
X108494746Y-63006331D01*
X108547615Y-63078265D01*
X108593272Y-63154411D01*
X108631807Y-63234947D01*
X108663308Y-63320054D01*
X108687864Y-63409910D01*
X108700742Y-63474399D01*
X108701408Y-63478569D01*
X108702035Y-63483258D01*
X108702626Y-63488727D01*
X108703181Y-63495235D01*
X108703702Y-63503041D01*
X108704191Y-63512406D01*
X108704650Y-63523589D01*
X108705079Y-63536849D01*
X108705481Y-63552445D01*
X108705857Y-63570639D01*
X108706209Y-63591688D01*
X108706538Y-63615854D01*
X108706846Y-63643394D01*
X108707135Y-63674569D01*
X108707406Y-63709639D01*
X108707661Y-63748862D01*
X108707901Y-63792499D01*
X108708128Y-63840809D01*
X108708344Y-63894052D01*
X108708549Y-63952487D01*
X108708747Y-64016374D01*
X108708938Y-64085972D01*
X108709124Y-64161541D01*
X108709307Y-64243340D01*
X108709487Y-64331630D01*
X108709668Y-64426669D01*
X108709850Y-64528717D01*
X108710035Y-64638034D01*
X108710224Y-64754880D01*
X108710420Y-64879513D01*
X108710624Y-65012194D01*
X108710753Y-65097883D01*
X108710958Y-65236952D01*
X108711142Y-65367818D01*
X108711312Y-65490744D01*
X108711472Y-65605994D01*
X108711626Y-65713830D01*
X108711780Y-65814517D01*
X108711938Y-65908318D01*
X108712106Y-65995495D01*
X108712288Y-66076314D01*
X108712489Y-66151036D01*
X108712713Y-66219925D01*
X108712966Y-66283245D01*
X108713253Y-66341258D01*
X108713578Y-66394230D01*
X108713946Y-66442422D01*
X108714362Y-66486098D01*
X108714831Y-66525521D01*
X108715357Y-66560956D01*
X108715946Y-66592665D01*
X108716603Y-66620912D01*
X108717332Y-66645960D01*
X108718137Y-66668072D01*
X108719025Y-66687512D01*
X108719999Y-66704544D01*
X108721065Y-66719430D01*
X108722228Y-66732434D01*
X108723491Y-66743819D01*
X108724861Y-66753850D01*
X108726342Y-66762788D01*
X108727938Y-66770898D01*
X108729655Y-66778444D01*
X108731498Y-66785687D01*
X108733471Y-66792892D01*
X108735579Y-66800323D01*
X108737827Y-66808241D01*
X108740220Y-66816912D01*
X108742515Y-66825631D01*
X108769229Y-66913114D01*
X108803478Y-66996942D01*
X108844994Y-67076737D01*
X108893510Y-67152122D01*
X108948757Y-67222717D01*
X109010469Y-67288145D01*
X109078379Y-67348028D01*
X109148851Y-67399745D01*
X109199651Y-67433727D01*
X109200713Y-65528146D01*
X109201776Y-63622566D01*
X110188134Y-63622566D01*
X110188134Y-67563800D01*
X107448109Y-67563122D01*
X107296028Y-67563082D01*
X107146010Y-67563039D01*
X106998278Y-67562991D01*
X106853057Y-67562941D01*
X106710572Y-67562887D01*
X106571047Y-67562830D01*
X106434705Y-67562770D01*
X106301773Y-67562707D01*
X106172473Y-67562642D01*
X106047031Y-67562574D01*
X105925670Y-67562505D01*
X105808616Y-67562433D01*
X105696092Y-67562359D01*
X105588323Y-67562283D01*
X105485533Y-67562206D01*
X105387947Y-67562127D01*
X105295789Y-67562048D01*
X105209283Y-67561967D01*
X105128654Y-67561885D01*
X105054126Y-67561803D01*
X104985924Y-67561720D01*
X104924272Y-67561637D01*
X104869394Y-67561553D01*
X104821515Y-67561470D01*
X104780859Y-67561387D01*
X104747651Y-67561304D01*
X104722114Y-67561221D01*
X104704474Y-67561140D01*
X104694954Y-67561059D01*
X104693267Y-67561015D01*
X104598432Y-67548099D01*
X104508091Y-67528038D01*
X104422083Y-67500759D01*
X104340245Y-67466190D01*
X104262416Y-67424256D01*
X104188433Y-67374885D01*
X104118135Y-67318003D01*
X104082125Y-67284601D01*
X104027592Y-67227738D01*
X103979651Y-67169055D01*
X103936837Y-67106556D01*
X103897682Y-67038243D01*
X103889260Y-67021933D01*
X103857213Y-66952313D01*
X103830953Y-66880839D01*
X103809888Y-66805665D01*
X103793426Y-66724945D01*
X103792819Y-66721366D01*
X103792241Y-66717623D01*
X103791693Y-66713307D01*
X103791174Y-66708189D01*
X103790683Y-66702043D01*
X103790219Y-66694641D01*
X103789781Y-66685754D01*
X103789369Y-66675155D01*
X103788982Y-66662615D01*
X103788617Y-66647908D01*
X103788275Y-66630804D01*
X103787955Y-66611077D01*
X103787655Y-66588499D01*
X103787375Y-66562841D01*
X103787113Y-66533876D01*
X103786870Y-66501375D01*
X103786642Y-66465112D01*
X103786431Y-66424858D01*
X103786235Y-66380385D01*
X103786052Y-66331466D01*
X103785882Y-66277872D01*
X103785725Y-66219376D01*
X103785578Y-66155750D01*
X103785441Y-66086766D01*
X103785314Y-66012196D01*
X103785194Y-65931812D01*
X103785082Y-65845387D01*
X103784976Y-65752693D01*
X103784876Y-65653502D01*
X103784780Y-65547585D01*
X103784687Y-65434715D01*
X103784597Y-65314665D01*
X103784508Y-65187206D01*
X103784419Y-65052111D01*
X103784331Y-64909151D01*
X103784241Y-64758099D01*
X103784181Y-64656510D01*
X103783585Y-63622566D01*
X104769467Y-63622566D01*
X104769467Y-66577433D01*
X107724334Y-66577433D01*
X107724334Y-63622566D01*
X104769467Y-63622566D01*
X103783585Y-63622566D01*
X103783015Y-62636105D01*
X105805532Y-62637246D01*
X105805532Y-62637246D01*
G37*
X105805532Y-62637246D02*
X107828050Y-62638387D01*
X107880967Y-62647986D01*
X107947579Y-62661646D01*
X108008259Y-62677621D01*
X108065404Y-62696696D01*
X108121409Y-62719659D01*
X108169822Y-62742778D01*
X108237378Y-62779907D01*
X108299165Y-62820359D01*
X108357217Y-62865637D01*
X108413571Y-62917245D01*
X108434577Y-62938430D01*
X108494746Y-63006331D01*
X108547615Y-63078265D01*
X108593272Y-63154411D01*
X108631807Y-63234947D01*
X108663308Y-63320054D01*
X108687864Y-63409910D01*
X108700742Y-63474399D01*
X108701408Y-63478569D01*
X108702035Y-63483258D01*
X108702626Y-63488727D01*
X108703181Y-63495235D01*
X108703702Y-63503041D01*
X108704191Y-63512406D01*
X108704650Y-63523589D01*
X108705079Y-63536849D01*
X108705481Y-63552445D01*
X108705857Y-63570639D01*
X108706209Y-63591688D01*
X108706538Y-63615854D01*
X108706846Y-63643394D01*
X108707135Y-63674569D01*
X108707406Y-63709639D01*
X108707661Y-63748862D01*
X108707901Y-63792499D01*
X108708128Y-63840809D01*
X108708344Y-63894052D01*
X108708549Y-63952487D01*
X108708747Y-64016374D01*
X108708938Y-64085972D01*
X108709124Y-64161541D01*
X108709307Y-64243340D01*
X108709487Y-64331630D01*
X108709668Y-64426669D01*
X108709850Y-64528717D01*
X108710035Y-64638034D01*
X108710224Y-64754880D01*
X108710420Y-64879513D01*
X108710624Y-65012194D01*
X108710753Y-65097883D01*
X108710958Y-65236952D01*
X108711142Y-65367818D01*
X108711312Y-65490744D01*
X108711472Y-65605994D01*
X108711626Y-65713830D01*
X108711780Y-65814517D01*
X108711938Y-65908318D01*
X108712106Y-65995495D01*
X108712288Y-66076314D01*
X108712489Y-66151036D01*
X108712713Y-66219925D01*
X108712966Y-66283245D01*
X108713253Y-66341258D01*
X108713578Y-66394230D01*
X108713946Y-66442422D01*
X108714362Y-66486098D01*
X108714831Y-66525521D01*
X108715357Y-66560956D01*
X108715946Y-66592665D01*
X108716603Y-66620912D01*
X108717332Y-66645960D01*
X108718137Y-66668072D01*
X108719025Y-66687512D01*
X108719999Y-66704544D01*
X108721065Y-66719430D01*
X108722228Y-66732434D01*
X108723491Y-66743819D01*
X108724861Y-66753850D01*
X108726342Y-66762788D01*
X108727938Y-66770898D01*
X108729655Y-66778444D01*
X108731498Y-66785687D01*
X108733471Y-66792892D01*
X108735579Y-66800323D01*
X108737827Y-66808241D01*
X108740220Y-66816912D01*
X108742515Y-66825631D01*
X108769229Y-66913114D01*
X108803478Y-66996942D01*
X108844994Y-67076737D01*
X108893510Y-67152122D01*
X108948757Y-67222717D01*
X109010469Y-67288145D01*
X109078379Y-67348028D01*
X109148851Y-67399745D01*
X109199651Y-67433727D01*
X109200713Y-65528146D01*
X109201776Y-63622566D01*
X110188134Y-63622566D01*
X110188134Y-67563800D01*
X107448109Y-67563122D01*
X107296028Y-67563082D01*
X107146010Y-67563039D01*
X106998278Y-67562991D01*
X106853057Y-67562941D01*
X106710572Y-67562887D01*
X106571047Y-67562830D01*
X106434705Y-67562770D01*
X106301773Y-67562707D01*
X106172473Y-67562642D01*
X106047031Y-67562574D01*
X105925670Y-67562505D01*
X105808616Y-67562433D01*
X105696092Y-67562359D01*
X105588323Y-67562283D01*
X105485533Y-67562206D01*
X105387947Y-67562127D01*
X105295789Y-67562048D01*
X105209283Y-67561967D01*
X105128654Y-67561885D01*
X105054126Y-67561803D01*
X104985924Y-67561720D01*
X104924272Y-67561637D01*
X104869394Y-67561553D01*
X104821515Y-67561470D01*
X104780859Y-67561387D01*
X104747651Y-67561304D01*
X104722114Y-67561221D01*
X104704474Y-67561140D01*
X104694954Y-67561059D01*
X104693267Y-67561015D01*
X104598432Y-67548099D01*
X104508091Y-67528038D01*
X104422083Y-67500759D01*
X104340245Y-67466190D01*
X104262416Y-67424256D01*
X104188433Y-67374885D01*
X104118135Y-67318003D01*
X104082125Y-67284601D01*
X104027592Y-67227738D01*
X103979651Y-67169055D01*
X103936837Y-67106556D01*
X103897682Y-67038243D01*
X103889260Y-67021933D01*
X103857213Y-66952313D01*
X103830953Y-66880839D01*
X103809888Y-66805665D01*
X103793426Y-66724945D01*
X103792819Y-66721366D01*
X103792241Y-66717623D01*
X103791693Y-66713307D01*
X103791174Y-66708189D01*
X103790683Y-66702043D01*
X103790219Y-66694641D01*
X103789781Y-66685754D01*
X103789369Y-66675155D01*
X103788982Y-66662615D01*
X103788617Y-66647908D01*
X103788275Y-66630804D01*
X103787955Y-66611077D01*
X103787655Y-66588499D01*
X103787375Y-66562841D01*
X103787113Y-66533876D01*
X103786870Y-66501375D01*
X103786642Y-66465112D01*
X103786431Y-66424858D01*
X103786235Y-66380385D01*
X103786052Y-66331466D01*
X103785882Y-66277872D01*
X103785725Y-66219376D01*
X103785578Y-66155750D01*
X103785441Y-66086766D01*
X103785314Y-66012196D01*
X103785194Y-65931812D01*
X103785082Y-65845387D01*
X103784976Y-65752693D01*
X103784876Y-65653502D01*
X103784780Y-65547585D01*
X103784687Y-65434715D01*
X103784597Y-65314665D01*
X103784508Y-65187206D01*
X103784419Y-65052111D01*
X103784331Y-64909151D01*
X103784241Y-64758099D01*
X103784181Y-64656510D01*
X103783585Y-63622566D01*
X104769467Y-63622566D01*
X104769467Y-66577433D01*
X107724334Y-66577433D01*
X107724334Y-63622566D01*
X104769467Y-63622566D01*
X103783585Y-63622566D01*
X103783015Y-62636105D01*
X105805532Y-62637246D01*
G36*
X111962936Y-62637280D02*
X112146296Y-62637357D01*
X112321383Y-62637432D01*
X112488392Y-62637506D01*
X112647516Y-62637579D01*
X112798950Y-62637652D01*
X112942886Y-62637727D01*
X113079520Y-62637802D01*
X113209045Y-62637879D01*
X113331655Y-62637959D01*
X113447545Y-62638042D01*
X113556908Y-62638129D01*
X113659938Y-62638220D01*
X113756829Y-62638316D01*
X113847775Y-62638417D01*
X113932970Y-62638525D01*
X114012609Y-62638639D01*
X114086884Y-62638761D01*
X114155991Y-62638891D01*
X114220122Y-62639029D01*
X114279473Y-62639176D01*
X114334237Y-62639333D01*
X114384608Y-62639501D01*
X114430779Y-62639679D01*
X114472946Y-62639869D01*
X114511302Y-62640071D01*
X114546041Y-62640286D01*
X114577357Y-62640515D01*
X114605443Y-62640757D01*
X114630495Y-62641014D01*
X114652705Y-62641286D01*
X114672269Y-62641574D01*
X114689379Y-62641879D01*
X114704230Y-62642200D01*
X114717016Y-62642539D01*
X114727931Y-62642897D01*
X114737168Y-62643273D01*
X114744923Y-62643668D01*
X114751388Y-62644084D01*
X114756758Y-62644520D01*
X114761227Y-62644977D01*
X114764988Y-62645457D01*
X114768236Y-62645958D01*
X114768601Y-62646020D01*
X114862511Y-62666056D01*
X114952108Y-62693277D01*
X115037227Y-62727572D01*
X115117703Y-62768831D01*
X115193371Y-62816945D01*
X115264066Y-62871802D01*
X115329624Y-62933292D01*
X115389879Y-63001304D01*
X115444666Y-63075729D01*
X115470062Y-63115482D01*
X115499596Y-63168671D01*
X115527012Y-63227091D01*
X115551227Y-63288028D01*
X115571158Y-63348765D01*
X115585297Y-63404550D01*
X115587286Y-63413710D01*
X115589156Y-63421963D01*
X115590913Y-63429573D01*
X115592559Y-63436804D01*
X115594100Y-63443921D01*
X115595538Y-63451189D01*
X115596877Y-63458872D01*
X115598123Y-63467234D01*
X115599278Y-63476541D01*
X115600347Y-63487056D01*
X115601333Y-63499044D01*
X115602241Y-63512770D01*
X115603075Y-63528499D01*
X115603838Y-63546494D01*
X115604535Y-63567021D01*
X115605169Y-63590343D01*
X115605745Y-63616726D01*
X115606266Y-63646434D01*
X115606736Y-63679732D01*
X115607160Y-63716883D01*
X115607541Y-63758154D01*
X115607884Y-63803807D01*
X115608191Y-63854108D01*
X115608468Y-63909322D01*
X115608719Y-63969712D01*
X115608946Y-64035544D01*
X115609155Y-64107081D01*
X115609349Y-64184589D01*
X115609532Y-64268332D01*
X115609708Y-64358574D01*
X115609881Y-64455581D01*
X115610055Y-64559616D01*
X115610234Y-64670944D01*
X115610422Y-64789830D01*
X115610623Y-64916538D01*
X115610841Y-65051333D01*
X115610942Y-65112700D01*
X115613580Y-66698083D01*
X115622839Y-66745860D01*
X115644992Y-66840293D01*
X115673869Y-66929592D01*
X115709502Y-67013809D01*
X115751924Y-67092998D01*
X115801167Y-67167212D01*
X115857265Y-67236505D01*
X115920249Y-67300928D01*
X115990152Y-67360536D01*
X116007059Y-67373455D01*
X116040646Y-67398608D01*
X116051777Y-67387012D01*
X116055023Y-67383192D01*
X116063437Y-67373141D01*
X116076779Y-67357144D01*
X116094813Y-67335487D01*
X116117302Y-67308458D01*
X116144007Y-67276341D01*
X116174692Y-67239424D01*
X116209120Y-67197991D01*
X116247052Y-67152331D01*
X116288251Y-67102727D01*
X116332481Y-67049468D01*
X116379503Y-66992838D01*
X116429080Y-66933124D01*
X116480975Y-66870613D01*
X116534950Y-66805589D01*
X116590768Y-66738340D01*
X116648192Y-66669152D01*
X116706984Y-66598310D01*
X116766907Y-66526101D01*
X116827723Y-66452811D01*
X116889195Y-66378727D01*
X116951086Y-66304133D01*
X117013157Y-66229317D01*
X117075173Y-66154565D01*
X117136895Y-66080162D01*
X117198086Y-66006395D01*
X117258508Y-65933551D01*
X117317925Y-65861914D01*
X117376098Y-65791772D01*
X117432791Y-65723410D01*
X117487765Y-65657115D01*
X117540784Y-65593172D01*
X117591611Y-65531869D01*
X117640007Y-65473490D01*
X117685735Y-65418323D01*
X117728558Y-65366653D01*
X117768239Y-65318767D01*
X117804540Y-65274950D01*
X117837224Y-65235489D01*
X117866053Y-65200670D01*
X117890790Y-65170779D01*
X117911198Y-65146102D01*
X117927038Y-65126925D01*
X117938075Y-65113535D01*
X117944070Y-65106218D01*
X117945048Y-65104998D01*
X117944050Y-65103134D01*
X117940196Y-65098462D01*
X117933358Y-65090852D01*
X117923407Y-65080174D01*
X117910215Y-65066298D01*
X117893653Y-65049096D01*
X117873593Y-65028438D01*
X117849907Y-65004193D01*
X117822465Y-64976234D01*
X117791140Y-64944429D01*
X117755802Y-64908651D01*
X117716325Y-64868768D01*
X117672578Y-64824653D01*
X117624434Y-64776174D01*
X117571764Y-64723204D01*
X117514440Y-64665612D01*
X117452334Y-64603268D01*
X117385316Y-64536044D01*
X117313259Y-64463810D01*
X117236033Y-64386436D01*
X117153511Y-64303793D01*
X117065564Y-64215752D01*
X116972064Y-64122182D01*
X116872882Y-64022955D01*
X116767889Y-63917941D01*
X116717757Y-63867806D01*
X115486156Y-62636200D01*
X115988307Y-62636200D01*
X116066456Y-62636197D01*
X116136641Y-62636200D01*
X116199364Y-62636231D01*
X116255127Y-62636315D01*
X116304433Y-62636474D01*
X116347784Y-62636729D01*
X116385682Y-62637103D01*
X116418629Y-62637618D01*
X116447128Y-62638297D01*
X116471682Y-62639163D01*
X116492792Y-62640237D01*
X116510960Y-62641541D01*
X116526690Y-62643099D01*
X116540483Y-62644933D01*
X116552842Y-62647065D01*
X116564269Y-62649517D01*
X116575266Y-62652313D01*
X116586336Y-62655473D01*
X116597981Y-62659021D01*
X116610703Y-62662979D01*
X116614334Y-62664105D01*
X116677634Y-62687303D01*
X116742008Y-62717892D01*
X116806106Y-62755148D01*
X116868579Y-62798349D01*
X116876800Y-62804586D01*
X116883560Y-62810478D01*
X116896191Y-62822276D01*
X116914596Y-62839882D01*
X116938677Y-62863200D01*
X116968335Y-62892130D01*
X117003472Y-62926577D01*
X117043990Y-62966444D01*
X117089790Y-63011631D01*
X117140774Y-63062043D01*
X117196844Y-63117583D01*
X117257901Y-63178151D01*
X117323846Y-63243653D01*
X117394583Y-63313989D01*
X117470011Y-63389063D01*
X117550034Y-63468777D01*
X117634552Y-63553034D01*
X117723467Y-63641737D01*
X117816681Y-63734789D01*
X117818717Y-63736822D01*
X117892398Y-63810373D01*
X117964735Y-63882534D01*
X118035484Y-63953064D01*
X118104403Y-64021723D01*
X118171249Y-64088270D01*
X118235780Y-64152465D01*
X118297753Y-64214068D01*
X118356925Y-64272837D01*
X118413054Y-64328534D01*
X118465897Y-64380917D01*
X118515212Y-64429746D01*
X118560755Y-64474780D01*
X118602284Y-64515780D01*
X118639557Y-64552505D01*
X118672330Y-64584714D01*
X118700361Y-64612167D01*
X118723408Y-64634624D01*
X118741228Y-64651844D01*
X118753578Y-64663588D01*
X118760216Y-64669613D01*
X118760634Y-64669954D01*
X118818115Y-64712750D01*
X118875831Y-64750450D01*
X118933039Y-64782710D01*
X118988995Y-64809185D01*
X119042957Y-64829534D01*
X119094181Y-64843410D01*
X119141924Y-64850472D01*
X119152217Y-64851091D01*
X119181850Y-64852350D01*
X119182917Y-63744274D01*
X119183983Y-62636200D01*
X120216900Y-62636200D01*
X120216900Y-67563800D01*
X119183983Y-67563800D01*
X119182917Y-66455724D01*
X119181850Y-65347650D01*
X119167800Y-65346301D01*
X119146288Y-65346286D01*
X119118729Y-65349410D01*
X119086762Y-65355267D01*
X119052025Y-65363447D01*
X119016158Y-65373543D01*
X118980802Y-65385146D01*
X118947594Y-65397847D01*
X118930057Y-65405513D01*
X118901653Y-65420177D01*
X118869494Y-65439373D01*
X118835789Y-65461626D01*
X118802747Y-65485457D01*
X118772577Y-65509391D01*
X118764800Y-65516034D01*
X118761223Y-65519177D01*
X118757558Y-65522485D01*
X118753631Y-65526159D01*
X118749266Y-65530403D01*
X118744289Y-65535418D01*
X118738525Y-65541405D01*
X118731798Y-65548568D01*
X118723934Y-65557109D01*
X118714758Y-65567229D01*
X118704095Y-65579130D01*
X118691770Y-65593014D01*
X118677608Y-65609085D01*
X118661433Y-65627543D01*
X118643072Y-65648591D01*
X118622348Y-65672430D01*
X118599088Y-65699264D01*
X118573116Y-65729293D01*
X118544257Y-65762721D01*
X118512336Y-65799748D01*
X118477179Y-65840578D01*
X118438610Y-65885412D01*
X118396454Y-65934453D01*
X118350536Y-65987902D01*
X118300682Y-66045961D01*
X118246717Y-66108833D01*
X118188465Y-66176720D01*
X118125751Y-66249823D01*
X118058401Y-66328346D01*
X117986240Y-66412489D01*
X117909092Y-66502455D01*
X117826783Y-66598446D01*
X117739603Y-66700122D01*
X117669811Y-66781488D01*
X117605329Y-66856594D01*
X117545989Y-66925635D01*
X117491621Y-66988804D01*
X117442056Y-67046296D01*
X117397125Y-67098304D01*
X117356659Y-67145024D01*
X117320488Y-67186650D01*
X117288443Y-67223374D01*
X117260355Y-67255392D01*
X117236055Y-67282898D01*
X117215373Y-67306086D01*
X117198140Y-67325150D01*
X117184187Y-67340285D01*
X117173344Y-67351684D01*
X117165443Y-67359541D01*
X117162550Y-67362196D01*
X117096399Y-67415620D01*
X117027787Y-67461842D01*
X116957308Y-67500530D01*
X116885551Y-67531354D01*
X116826965Y-67550309D01*
X116785784Y-67561683D01*
X113957917Y-67562238D01*
X113803331Y-67562262D01*
X113650778Y-67562276D01*
X113500479Y-67562280D01*
X113352657Y-67562272D01*
X113207534Y-67562254D01*
X113065330Y-67562227D01*
X112926269Y-67562189D01*
X112790571Y-67562142D01*
X112658460Y-67562086D01*
X112530156Y-67562020D01*
X112405881Y-67561946D01*
X112285858Y-67561863D01*
X112170308Y-67561771D01*
X112059453Y-67561672D01*
X111953515Y-67561564D01*
X111852715Y-67561449D01*
X111757276Y-67561327D01*
X111667420Y-67561197D01*
X111583368Y-67561060D01*
X111505342Y-67560917D01*
X111433564Y-67560767D01*
X111368256Y-67560611D01*
X111309639Y-67560449D01*
X111257936Y-67560281D01*
X111213369Y-67560108D01*
X111176159Y-67559929D01*
X111146527Y-67559746D01*
X111124697Y-67559557D01*
X111110890Y-67559364D01*
X111105327Y-67559167D01*
X111105326Y-67559167D01*
X111043145Y-67545944D01*
X110984075Y-67525263D01*
X110928668Y-67497648D01*
X110877478Y-67463625D01*
X110831057Y-67423720D01*
X110789956Y-67378457D01*
X110754729Y-67328362D01*
X110725928Y-67273960D01*
X110704106Y-67215776D01*
X110691901Y-67166109D01*
X110689978Y-67155548D01*
X110688320Y-67145105D01*
X110686909Y-67134102D01*
X110685730Y-67121859D01*
X110684763Y-67107699D01*
X110683993Y-67090941D01*
X110683401Y-67070906D01*
X110682972Y-67046916D01*
X110682687Y-67018291D01*
X110682529Y-66984353D01*
X110682481Y-66944422D01*
X110682527Y-66897819D01*
X110682648Y-66843866D01*
X110682758Y-66804974D01*
X110683434Y-66577433D01*
X114624667Y-66577433D01*
X114624667Y-65591136D01*
X112858309Y-65590043D01*
X111091950Y-65588950D01*
X111050306Y-65577458D01*
X111016699Y-65566507D01*
X110980528Y-65551861D01*
X110944700Y-65534873D01*
X110912122Y-65516898D01*
X110891452Y-65503499D01*
X110842086Y-65463449D01*
X110798410Y-65417548D01*
X110760932Y-65366595D01*
X110730159Y-65311392D01*
X110706599Y-65252740D01*
X110690757Y-65191439D01*
X110689532Y-65184707D01*
X110688743Y-65179304D01*
X110688022Y-65172282D01*
X110687365Y-65163274D01*
X110686770Y-65151915D01*
X110686234Y-65137839D01*
X110685754Y-65120681D01*
X110685327Y-65100075D01*
X110684951Y-65075655D01*
X110684623Y-65047055D01*
X110684340Y-65013909D01*
X110684098Y-64975853D01*
X110683896Y-64932519D01*
X110683730Y-64883543D01*
X110683598Y-64828559D01*
X110683497Y-64767200D01*
X110683424Y-64699102D01*
X110683376Y-64623898D01*
X110683351Y-64541223D01*
X110683345Y-64450710D01*
X110683351Y-64380333D01*
X110683357Y-64280914D01*
X110683343Y-64189575D01*
X110683301Y-64105928D01*
X110683225Y-64029585D01*
X110683109Y-63960160D01*
X110682946Y-63897266D01*
X110682731Y-63840514D01*
X110682456Y-63789518D01*
X110682116Y-63743890D01*
X110681704Y-63703243D01*
X110681214Y-63667189D01*
X110680640Y-63635343D01*
X110680337Y-63622566D01*
X111665567Y-63622566D01*
X111665567Y-64553899D01*
X114624667Y-64553899D01*
X114624667Y-63622566D01*
X111665567Y-63622566D01*
X110680337Y-63622566D01*
X110679974Y-63607315D01*
X110679211Y-63582719D01*
X110678345Y-63561168D01*
X110677369Y-63542274D01*
X110676276Y-63525649D01*
X110675061Y-63510908D01*
X110673717Y-63497662D01*
X110672238Y-63485524D01*
X110670617Y-63474106D01*
X110668848Y-63463023D01*
X110668267Y-63459583D01*
X110648962Y-63371393D01*
X110621797Y-63285869D01*
X110587096Y-63203498D01*
X110545181Y-63124768D01*
X110496375Y-63050167D01*
X110441000Y-62980183D01*
X110379379Y-62915304D01*
X110311834Y-62856018D01*
X110238689Y-62802813D01*
X110230467Y-62797451D01*
X110190251Y-62771507D01*
X110189164Y-63074288D01*
X110188078Y-63377068D01*
X109203884Y-63374916D01*
X109202802Y-63005526D01*
X109201721Y-62636137D01*
X111962936Y-62637280D01*
X111962936Y-62637280D01*
G37*
X111962936Y-62637280D02*
X112146296Y-62637357D01*
X112321383Y-62637432D01*
X112488392Y-62637506D01*
X112647516Y-62637579D01*
X112798950Y-62637652D01*
X112942886Y-62637727D01*
X113079520Y-62637802D01*
X113209045Y-62637879D01*
X113331655Y-62637959D01*
X113447545Y-62638042D01*
X113556908Y-62638129D01*
X113659938Y-62638220D01*
X113756829Y-62638316D01*
X113847775Y-62638417D01*
X113932970Y-62638525D01*
X114012609Y-62638639D01*
X114086884Y-62638761D01*
X114155991Y-62638891D01*
X114220122Y-62639029D01*
X114279473Y-62639176D01*
X114334237Y-62639333D01*
X114384608Y-62639501D01*
X114430779Y-62639679D01*
X114472946Y-62639869D01*
X114511302Y-62640071D01*
X114546041Y-62640286D01*
X114577357Y-62640515D01*
X114605443Y-62640757D01*
X114630495Y-62641014D01*
X114652705Y-62641286D01*
X114672269Y-62641574D01*
X114689379Y-62641879D01*
X114704230Y-62642200D01*
X114717016Y-62642539D01*
X114727931Y-62642897D01*
X114737168Y-62643273D01*
X114744923Y-62643668D01*
X114751388Y-62644084D01*
X114756758Y-62644520D01*
X114761227Y-62644977D01*
X114764988Y-62645457D01*
X114768236Y-62645958D01*
X114768601Y-62646020D01*
X114862511Y-62666056D01*
X114952108Y-62693277D01*
X115037227Y-62727572D01*
X115117703Y-62768831D01*
X115193371Y-62816945D01*
X115264066Y-62871802D01*
X115329624Y-62933292D01*
X115389879Y-63001304D01*
X115444666Y-63075729D01*
X115470062Y-63115482D01*
X115499596Y-63168671D01*
X115527012Y-63227091D01*
X115551227Y-63288028D01*
X115571158Y-63348765D01*
X115585297Y-63404550D01*
X115587286Y-63413710D01*
X115589156Y-63421963D01*
X115590913Y-63429573D01*
X115592559Y-63436804D01*
X115594100Y-63443921D01*
X115595538Y-63451189D01*
X115596877Y-63458872D01*
X115598123Y-63467234D01*
X115599278Y-63476541D01*
X115600347Y-63487056D01*
X115601333Y-63499044D01*
X115602241Y-63512770D01*
X115603075Y-63528499D01*
X115603838Y-63546494D01*
X115604535Y-63567021D01*
X115605169Y-63590343D01*
X115605745Y-63616726D01*
X115606266Y-63646434D01*
X115606736Y-63679732D01*
X115607160Y-63716883D01*
X115607541Y-63758154D01*
X115607884Y-63803807D01*
X115608191Y-63854108D01*
X115608468Y-63909322D01*
X115608719Y-63969712D01*
X115608946Y-64035544D01*
X115609155Y-64107081D01*
X115609349Y-64184589D01*
X115609532Y-64268332D01*
X115609708Y-64358574D01*
X115609881Y-64455581D01*
X115610055Y-64559616D01*
X115610234Y-64670944D01*
X115610422Y-64789830D01*
X115610623Y-64916538D01*
X115610841Y-65051333D01*
X115610942Y-65112700D01*
X115613580Y-66698083D01*
X115622839Y-66745860D01*
X115644992Y-66840293D01*
X115673869Y-66929592D01*
X115709502Y-67013809D01*
X115751924Y-67092998D01*
X115801167Y-67167212D01*
X115857265Y-67236505D01*
X115920249Y-67300928D01*
X115990152Y-67360536D01*
X116007059Y-67373455D01*
X116040646Y-67398608D01*
X116051777Y-67387012D01*
X116055023Y-67383192D01*
X116063437Y-67373141D01*
X116076779Y-67357144D01*
X116094813Y-67335487D01*
X116117302Y-67308458D01*
X116144007Y-67276341D01*
X116174692Y-67239424D01*
X116209120Y-67197991D01*
X116247052Y-67152331D01*
X116288251Y-67102727D01*
X116332481Y-67049468D01*
X116379503Y-66992838D01*
X116429080Y-66933124D01*
X116480975Y-66870613D01*
X116534950Y-66805589D01*
X116590768Y-66738340D01*
X116648192Y-66669152D01*
X116706984Y-66598310D01*
X116766907Y-66526101D01*
X116827723Y-66452811D01*
X116889195Y-66378727D01*
X116951086Y-66304133D01*
X117013157Y-66229317D01*
X117075173Y-66154565D01*
X117136895Y-66080162D01*
X117198086Y-66006395D01*
X117258508Y-65933551D01*
X117317925Y-65861914D01*
X117376098Y-65791772D01*
X117432791Y-65723410D01*
X117487765Y-65657115D01*
X117540784Y-65593172D01*
X117591611Y-65531869D01*
X117640007Y-65473490D01*
X117685735Y-65418323D01*
X117728558Y-65366653D01*
X117768239Y-65318767D01*
X117804540Y-65274950D01*
X117837224Y-65235489D01*
X117866053Y-65200670D01*
X117890790Y-65170779D01*
X117911198Y-65146102D01*
X117927038Y-65126925D01*
X117938075Y-65113535D01*
X117944070Y-65106218D01*
X117945048Y-65104998D01*
X117944050Y-65103134D01*
X117940196Y-65098462D01*
X117933358Y-65090852D01*
X117923407Y-65080174D01*
X117910215Y-65066298D01*
X117893653Y-65049096D01*
X117873593Y-65028438D01*
X117849907Y-65004193D01*
X117822465Y-64976234D01*
X117791140Y-64944429D01*
X117755802Y-64908651D01*
X117716325Y-64868768D01*
X117672578Y-64824653D01*
X117624434Y-64776174D01*
X117571764Y-64723204D01*
X117514440Y-64665612D01*
X117452334Y-64603268D01*
X117385316Y-64536044D01*
X117313259Y-64463810D01*
X117236033Y-64386436D01*
X117153511Y-64303793D01*
X117065564Y-64215752D01*
X116972064Y-64122182D01*
X116872882Y-64022955D01*
X116767889Y-63917941D01*
X116717757Y-63867806D01*
X115486156Y-62636200D01*
X115988307Y-62636200D01*
X116066456Y-62636197D01*
X116136641Y-62636200D01*
X116199364Y-62636231D01*
X116255127Y-62636315D01*
X116304433Y-62636474D01*
X116347784Y-62636729D01*
X116385682Y-62637103D01*
X116418629Y-62637618D01*
X116447128Y-62638297D01*
X116471682Y-62639163D01*
X116492792Y-62640237D01*
X116510960Y-62641541D01*
X116526690Y-62643099D01*
X116540483Y-62644933D01*
X116552842Y-62647065D01*
X116564269Y-62649517D01*
X116575266Y-62652313D01*
X116586336Y-62655473D01*
X116597981Y-62659021D01*
X116610703Y-62662979D01*
X116614334Y-62664105D01*
X116677634Y-62687303D01*
X116742008Y-62717892D01*
X116806106Y-62755148D01*
X116868579Y-62798349D01*
X116876800Y-62804586D01*
X116883560Y-62810478D01*
X116896191Y-62822276D01*
X116914596Y-62839882D01*
X116938677Y-62863200D01*
X116968335Y-62892130D01*
X117003472Y-62926577D01*
X117043990Y-62966444D01*
X117089790Y-63011631D01*
X117140774Y-63062043D01*
X117196844Y-63117583D01*
X117257901Y-63178151D01*
X117323846Y-63243653D01*
X117394583Y-63313989D01*
X117470011Y-63389063D01*
X117550034Y-63468777D01*
X117634552Y-63553034D01*
X117723467Y-63641737D01*
X117816681Y-63734789D01*
X117818717Y-63736822D01*
X117892398Y-63810373D01*
X117964735Y-63882534D01*
X118035484Y-63953064D01*
X118104403Y-64021723D01*
X118171249Y-64088270D01*
X118235780Y-64152465D01*
X118297753Y-64214068D01*
X118356925Y-64272837D01*
X118413054Y-64328534D01*
X118465897Y-64380917D01*
X118515212Y-64429746D01*
X118560755Y-64474780D01*
X118602284Y-64515780D01*
X118639557Y-64552505D01*
X118672330Y-64584714D01*
X118700361Y-64612167D01*
X118723408Y-64634624D01*
X118741228Y-64651844D01*
X118753578Y-64663588D01*
X118760216Y-64669613D01*
X118760634Y-64669954D01*
X118818115Y-64712750D01*
X118875831Y-64750450D01*
X118933039Y-64782710D01*
X118988995Y-64809185D01*
X119042957Y-64829534D01*
X119094181Y-64843410D01*
X119141924Y-64850472D01*
X119152217Y-64851091D01*
X119181850Y-64852350D01*
X119182917Y-63744274D01*
X119183983Y-62636200D01*
X120216900Y-62636200D01*
X120216900Y-67563800D01*
X119183983Y-67563800D01*
X119182917Y-66455724D01*
X119181850Y-65347650D01*
X119167800Y-65346301D01*
X119146288Y-65346286D01*
X119118729Y-65349410D01*
X119086762Y-65355267D01*
X119052025Y-65363447D01*
X119016158Y-65373543D01*
X118980802Y-65385146D01*
X118947594Y-65397847D01*
X118930057Y-65405513D01*
X118901653Y-65420177D01*
X118869494Y-65439373D01*
X118835789Y-65461626D01*
X118802747Y-65485457D01*
X118772577Y-65509391D01*
X118764800Y-65516034D01*
X118761223Y-65519177D01*
X118757558Y-65522485D01*
X118753631Y-65526159D01*
X118749266Y-65530403D01*
X118744289Y-65535418D01*
X118738525Y-65541405D01*
X118731798Y-65548568D01*
X118723934Y-65557109D01*
X118714758Y-65567229D01*
X118704095Y-65579130D01*
X118691770Y-65593014D01*
X118677608Y-65609085D01*
X118661433Y-65627543D01*
X118643072Y-65648591D01*
X118622348Y-65672430D01*
X118599088Y-65699264D01*
X118573116Y-65729293D01*
X118544257Y-65762721D01*
X118512336Y-65799748D01*
X118477179Y-65840578D01*
X118438610Y-65885412D01*
X118396454Y-65934453D01*
X118350536Y-65987902D01*
X118300682Y-66045961D01*
X118246717Y-66108833D01*
X118188465Y-66176720D01*
X118125751Y-66249823D01*
X118058401Y-66328346D01*
X117986240Y-66412489D01*
X117909092Y-66502455D01*
X117826783Y-66598446D01*
X117739603Y-66700122D01*
X117669811Y-66781488D01*
X117605329Y-66856594D01*
X117545989Y-66925635D01*
X117491621Y-66988804D01*
X117442056Y-67046296D01*
X117397125Y-67098304D01*
X117356659Y-67145024D01*
X117320488Y-67186650D01*
X117288443Y-67223374D01*
X117260355Y-67255392D01*
X117236055Y-67282898D01*
X117215373Y-67306086D01*
X117198140Y-67325150D01*
X117184187Y-67340285D01*
X117173344Y-67351684D01*
X117165443Y-67359541D01*
X117162550Y-67362196D01*
X117096399Y-67415620D01*
X117027787Y-67461842D01*
X116957308Y-67500530D01*
X116885551Y-67531354D01*
X116826965Y-67550309D01*
X116785784Y-67561683D01*
X113957917Y-67562238D01*
X113803331Y-67562262D01*
X113650778Y-67562276D01*
X113500479Y-67562280D01*
X113352657Y-67562272D01*
X113207534Y-67562254D01*
X113065330Y-67562227D01*
X112926269Y-67562189D01*
X112790571Y-67562142D01*
X112658460Y-67562086D01*
X112530156Y-67562020D01*
X112405881Y-67561946D01*
X112285858Y-67561863D01*
X112170308Y-67561771D01*
X112059453Y-67561672D01*
X111953515Y-67561564D01*
X111852715Y-67561449D01*
X111757276Y-67561327D01*
X111667420Y-67561197D01*
X111583368Y-67561060D01*
X111505342Y-67560917D01*
X111433564Y-67560767D01*
X111368256Y-67560611D01*
X111309639Y-67560449D01*
X111257936Y-67560281D01*
X111213369Y-67560108D01*
X111176159Y-67559929D01*
X111146527Y-67559746D01*
X111124697Y-67559557D01*
X111110890Y-67559364D01*
X111105327Y-67559167D01*
X111105326Y-67559167D01*
X111043145Y-67545944D01*
X110984075Y-67525263D01*
X110928668Y-67497648D01*
X110877478Y-67463625D01*
X110831057Y-67423720D01*
X110789956Y-67378457D01*
X110754729Y-67328362D01*
X110725928Y-67273960D01*
X110704106Y-67215776D01*
X110691901Y-67166109D01*
X110689978Y-67155548D01*
X110688320Y-67145105D01*
X110686909Y-67134102D01*
X110685730Y-67121859D01*
X110684763Y-67107699D01*
X110683993Y-67090941D01*
X110683401Y-67070906D01*
X110682972Y-67046916D01*
X110682687Y-67018291D01*
X110682529Y-66984353D01*
X110682481Y-66944422D01*
X110682527Y-66897819D01*
X110682648Y-66843866D01*
X110682758Y-66804974D01*
X110683434Y-66577433D01*
X114624667Y-66577433D01*
X114624667Y-65591136D01*
X112858309Y-65590043D01*
X111091950Y-65588950D01*
X111050306Y-65577458D01*
X111016699Y-65566507D01*
X110980528Y-65551861D01*
X110944700Y-65534873D01*
X110912122Y-65516898D01*
X110891452Y-65503499D01*
X110842086Y-65463449D01*
X110798410Y-65417548D01*
X110760932Y-65366595D01*
X110730159Y-65311392D01*
X110706599Y-65252740D01*
X110690757Y-65191439D01*
X110689532Y-65184707D01*
X110688743Y-65179304D01*
X110688022Y-65172282D01*
X110687365Y-65163274D01*
X110686770Y-65151915D01*
X110686234Y-65137839D01*
X110685754Y-65120681D01*
X110685327Y-65100075D01*
X110684951Y-65075655D01*
X110684623Y-65047055D01*
X110684340Y-65013909D01*
X110684098Y-64975853D01*
X110683896Y-64932519D01*
X110683730Y-64883543D01*
X110683598Y-64828559D01*
X110683497Y-64767200D01*
X110683424Y-64699102D01*
X110683376Y-64623898D01*
X110683351Y-64541223D01*
X110683345Y-64450710D01*
X110683351Y-64380333D01*
X110683357Y-64280914D01*
X110683343Y-64189575D01*
X110683301Y-64105928D01*
X110683225Y-64029585D01*
X110683109Y-63960160D01*
X110682946Y-63897266D01*
X110682731Y-63840514D01*
X110682456Y-63789518D01*
X110682116Y-63743890D01*
X110681704Y-63703243D01*
X110681214Y-63667189D01*
X110680640Y-63635343D01*
X110680337Y-63622566D01*
X111665567Y-63622566D01*
X111665567Y-64553899D01*
X114624667Y-64553899D01*
X114624667Y-63622566D01*
X111665567Y-63622566D01*
X110680337Y-63622566D01*
X110679974Y-63607315D01*
X110679211Y-63582719D01*
X110678345Y-63561168D01*
X110677369Y-63542274D01*
X110676276Y-63525649D01*
X110675061Y-63510908D01*
X110673717Y-63497662D01*
X110672238Y-63485524D01*
X110670617Y-63474106D01*
X110668848Y-63463023D01*
X110668267Y-63459583D01*
X110648962Y-63371393D01*
X110621797Y-63285869D01*
X110587096Y-63203498D01*
X110545181Y-63124768D01*
X110496375Y-63050167D01*
X110441000Y-62980183D01*
X110379379Y-62915304D01*
X110311834Y-62856018D01*
X110238689Y-62802813D01*
X110230467Y-62797451D01*
X110190251Y-62771507D01*
X110189164Y-63074288D01*
X110188078Y-63377068D01*
X109203884Y-63374916D01*
X109202802Y-63005526D01*
X109201721Y-62636137D01*
X111962936Y-62637280D01*
M02*
